<?xml version="1.0" standalone="no"?>
<!DOCTYPE svg PUBLIC "-//W3C//DTD SVG 20010904//EN"
 "http://www.w3.org/TR/2001/REC-SVG-20010904/DTD/svg10.dtd">
<svg version="1.0" xmlns="http://www.w3.org/2000/svg"
 width="1024.000000pt" height="1024.000000pt" viewBox="0 0 1024.000000 1024.000000"
 preserveAspectRatio="xMidYMid meet">

<g transform="translate(0.000000,1024.000000) scale(0.100000,-0.100000)"
fill="#000000" stroke="none">
<path d="M6915 9944 c-337 -27 -557 -127 -810 -366 -84 -80 -235 -254 -263
-304 -8 -14 -20 -9 -77 31 -126 86 -284 155 -455 199 -137 35 -178 39 -345 37
-418 -6 -839 -144 -1225 -402 -224 -149 -443 -350 -552 -504 -177 -252 -251
-550 -171 -686 22 -37 93 -74 171 -89 34 -7 62 -15 63 -19 0 -3 2 -15 4 -26 2
-11 6 -47 9 -80 2 -33 8 -94 12 -136 l6 -77 -85 -12 -86 -12 15 -30 c15 -29
81 -67 117 -68 47 0 -4 -93 -145 -258 -62 -74 -119 -144 -127 -156 -28 -44 -8
-71 102 -142 56 -36 104 -68 106 -70 3 -2 -9 -19 -26 -37 -17 -17 -36 -42 -42
-54 -26 -51 -4 -123 51 -164 l23 -17 -23 -40 c-17 -31 -20 -46 -13 -64 11 -30
62 -74 106 -92 31 -13 33 -17 40 -82 25 -242 74 -316 214 -318 118 -2 219 11
396 49 61 14 122 27 138 29 15 3 35 7 45 10 9 3 28 7 42 10 14 2 61 12 105 20
184 36 252 16 293 -88 66 -166 48 -470 -42 -710 -111 -295 -274 -503 -690
-882 l-100 -91 65 -31 c133 -65 296 -92 561 -92 375 0 644 58 1001 216 93 41
359 179 477 249 147 85 251 149 255 156 3 4 -30 26 -72 49 -168 90 -256 173
-376 353 -111 165 -199 407 -228 624 -14 110 -6 373 15 465 30 129 75 226 172
367 361 526 462 693 560 928 100 239 129 391 128 673 0 183 -3 219 -27 333
-23 107 -81 300 -111 368 -6 13 5 24 46 47 141 79 309 122 484 122 162 0 249
-32 301 -109 50 -74 30 -158 -132 -561 -122 -303 -153 -393 -205 -593 -51
-198 -63 -283 -64 -447 -2 -231 30 -381 116 -554 193 -388 561 -596 1013 -572
319 16 564 146 756 401 69 93 116 195 163 359 58 198 70 277 63 391 -12 169
-74 282 -191 343 -47 25 -60 27 -171 27 -116 0 -123 -1 -187 -33 -37 -18 -91
-55 -121 -82 -48 -44 -200 -226 -408 -490 -46 -58 -88 -108 -94 -112 -25 -18
22 -5 166 48 220 81 294 82 335 3 53 -104 -35 -258 -194 -336 -70 -35 -83 -38
-157 -37 -147 1 -279 58 -385 165 -112 113 -152 216 -152 399 -1 123 18 191
84 312 68 123 166 236 372 428 317 297 460 468 564 676 124 247 119 491 -14
729 -35 61 -157 190 -238 251 -149 113 -340 199 -506 229 -14 2 -50 9 -80 15
-60 12 -285 20 -365 14z"/>
<path d="M2290 4944 c-218 -26 -408 -70 -627 -145 -340 -118 -556 -232 -676
-358 -66 -69 -90 -117 -112 -220 -21 -99 -20 -154 4 -175 17 -16 25 -14 137
20 65 19 186 60 268 90 82 30 151 52 154 50 2 -3 -41 -152 -97 -333 -118 -387
-507 -1744 -645 -2253 -125 -460 -143 -575 -112 -684 24 -82 81 -135 176 -165
50 -16 82 -21 110 -16 80 13 153 93 180 195 6 25 13 53 16 63 4 12 14 1 34
-41 58 -115 149 -193 281 -239 66 -23 90 -26 224 -27 144 -1 154 0 255 32 168
54 348 155 505 282 164 133 377 393 490 595 l33 59 11 -44 c21 -81 41 -127 82
-184 71 -99 167 -148 291 -148 138 -1 223 54 398 259 l87 101 24 -56 c28 -70
92 -140 156 -172 42 -22 61 -25 148 -25 91 0 106 3 167 32 37 17 90 53 119 80
115 108 278 373 535 872 38 73 81 144 97 157 l29 25 37 -28 c55 -42 62 -54 57
-98 -3 -22 -36 -119 -75 -215 -96 -241 -132 -364 -138 -476 -5 -86 -4 -94 26
-156 77 -162 247 -239 425 -193 68 18 122 53 193 126 l51 52 7 -49 c10 -64 55
-189 87 -239 59 -93 143 -154 247 -181 101 -26 195 0 328 89 87 58 251 211
324 303 79 99 179 270 225 384 35 87 46 104 61 100 10 -3 47 -5 83 -5 l65 0
-18 -85 c-26 -127 -20 -238 17 -315 36 -73 118 -158 183 -187 41 -20 65 -23
168 -22 106 0 128 3 193 28 78 29 147 67 224 121 l46 34 28 -57 c34 -72 169
-208 237 -240 26 -12 91 -30 144 -39 90 -15 103 -15 207 2 176 28 279 71 481
203 141 91 256 183 357 283 107 108 122 134 123 220 0 85 -16 105 -90 114 -59
8 -87 -4 -185 -76 -30 -22 -66 -47 -80 -57 -14 -9 -70 -52 -125 -95 -131 -104
-193 -146 -293 -197 -100 -51 -167 -70 -245 -70 -73 0 -113 17 -159 68 -33 36
-68 119 -68 159 0 8 55 40 128 74 202 96 261 128 350 186 46 31 89 61 95 67 7
6 38 33 70 59 159 134 268 367 271 577 1 105 -24 169 -91 231 -89 82 -203 106
-352 74 -84 -18 -211 -76 -296 -135 -69 -48 -203 -178 -260 -254 -182 -244
-267 -456 -292 -729 -6 -67 -6 -68 -67 -124 -91 -85 -199 -130 -298 -124 -33
2 -58 42 -58 91 0 123 139 398 348 685 69 96 124 186 146 239 24 57 21 147 -5
180 -30 38 -101 84 -151 97 -37 10 -49 9 -81 -6 -45 -21 -64 -44 -126 -155
-107 -190 -353 -505 -421 -540 -44 -22 -91 -26 -123 -9 -31 17 -37 28 -37 74
0 65 -30 134 -70 161 -77 53 -223 16 -284 -73 -31 -45 -44 -120 -28 -162 35
-92 -136 -483 -297 -680 -71 -87 -158 -122 -208 -83 -49 38 -91 177 -96 322
-3 87 -5 84 188 305 426 490 830 1043 1024 1405 94 176 212 457 246 590 26
100 18 239 -18 313 -34 69 -94 122 -162 143 -123 39 -252 -30 -508 -276 -278
-266 -632 -819 -864 -1350 -99 -225 -200 -596 -252 -921 -16 -103 -18 -108
-69 -170 -62 -77 -141 -129 -196 -129 -29 0 -45 7 -68 31 -30 30 -31 32 -25
102 7 91 39 181 126 366 85 179 102 232 103 316 1 63 0 67 -37 105 -22 22 -44
40 -50 40 -6 0 -52 20 -103 44 -118 58 -127 71 -116 173 18 167 6 222 -61 261
-33 19 -50 22 -100 19 -110 -8 -192 -72 -236 -183 -20 -51 -23 -78 -24 -199
-1 -137 -2 -141 -37 -220 -82 -187 -274 -537 -349 -640 -83 -112 -207 -215
-261 -215 -46 0 -56 36 -34 121 16 64 124 354 165 444 56 125 65 154 55 192
-11 47 -69 82 -147 90 -44 4 -62 1 -102 -20 -28 -14 -57 -33 -66 -43 -9 -11
-45 -80 -79 -154 -122 -266 -238 -447 -380 -591 -125 -127 -187 -158 -254
-128 -38 18 -50 58 -42 152 19 247 154 498 389 723 191 183 382 261 416 172
30 -80 176 -118 268 -70 99 51 141 235 72 309 -65 69 -249 119 -399 108 -336
-25 -702 -304 -942 -720 -32 -55 -58 -98 -58 -95 -13 165 -128 336 -305 457
-53 35 -141 81 -184 95 -9 2 10 19 48 43 92 55 244 175 334 264 223 216 463
561 533 766 26 74 28 92 28 235 1 148 0 158 -28 225 -56 136 -212 337 -346
443 -101 81 -270 157 -405 182 -64 12 -287 21 -345 14z m522 -443 c271 -86
330 -331 163 -676 -118 -243 -372 -520 -655 -714 -200 -137 -312 -197 -455
-240 -81 -25 -335 -72 -335 -61 0 3 11 40 25 81 70 203 254 838 286 986 28
127 27 225 -1 290 -24 58 -46 81 -108 116 l-44 24 34 13 c128 47 429 144 512
165 199 49 449 56 578 16z m4218 -389 c0 -5 -30 -89 -66 -188 -36 -98 -77
-210 -91 -249 -56 -155 -253 -501 -437 -770 -118 -172 -359 -481 -364 -467
-13 39 114 402 212 607 110 230 365 664 485 825 105 142 261 286 261 242z
m1757 -1369 c17 -44 -39 -199 -107 -298 -79 -115 -277 -278 -433 -357 l-60
-30 8 49 c13 91 80 243 153 348 36 52 159 185 197 215 59 46 94 66 138 81 52
18 96 14 104 -8z m-6534 -238 c209 -44 330 -216 314 -446 -10 -135 -90 -380
-120 -363 -6 5 -38 30 -70 56 -123 101 -220 132 -417 132 -118 -1 -147 -4
-225 -28 -176 -53 -357 -154 -476 -263 -32 -31 -59 -52 -59 -48 0 4 9 39 20
78 11 40 54 198 96 352 42 154 84 307 93 340 l16 60 115 1 c175 2 258 18 421
84 86 35 161 56 209 59 8 0 46 -6 83 -14z m-78 -943 c58 -32 78 -63 69 -112
-19 -115 -216 -293 -409 -371 -191 -76 -315 -33 -315 109 0 147 171 297 445
390 17 5 59 10 95 11 53 0 74 -5 115 -27z"/>
<path d="M8000 3787 c-83 -35 -145 -81 -205 -155 -74 -89 -96 -151 -98 -272
-1 -81 2 -101 21 -137 26 -50 58 -73 112 -83 94 -17 218 32 320 127 167 155
225 354 133 463 -61 73 -186 99 -283 57z"/>
</g>
</svg>
